<?xml version="1.0" encoding="UTF-8"?>

<!DOCTYPE svg PUBLIC '-//W3C//DTD SVG 1.0//EN' 'http://www.w3.org/TR/2001/REC-SVG-20010904/DTD/svg10.dtd'>
<svg stroke-dasharray="none" shape-rendering="auto" xmlns="http://www.w3.org/2000/svg" font-family="&apos;Dialog&apos;" text-rendering="auto" width="100%" fill-opacity="1" color-interpolation="auto" color-rendering="auto" font-size="12" viewBox="0 0 800 538" fill="black" xmlns:xlink="http://www.w3.org/1999/xlink" stroke="black" image-rendering="auto" stroke-miterlimit="10" stroke-linecap="square" stroke-linejoin="miter" font-style="normal" stroke-width="1" height="100%" stroke-dashoffset="0" font-weight="normal" stroke-opacity="1">
  <!--Generated by the Batik Graphics2D SVG Generator-->
  <defs id="genericDefs" />
  <g>
    <g>
      <text xml:space="preserve" x="2" y="17" stroke="none">Variable</text>
      <text xml:space="preserve" x="189" y="17" stroke="none">Achieved</text>
      <text xml:space="preserve" x="281" y="17" stroke="none">Theoretical</text>
      <text xml:space="preserve" x="375" y="17" stroke="none">Device Limit</text>
      <text xml:space="preserve" x="464" y="17" stroke="none">Grid Size: [ 10000,12,25 ] (3000000 blocks)	Block Size: [ 16,16,1 ] (256 threads)</text>
      <line fill="none" x1="170" x2="170" y1="0" y2="21" stroke="rgb(173,169,165)" />
      <line fill="none" x1="268" x2="268" y1="0" y2="21" stroke="rgb(173,169,165)" />
      <line fill="none" x1="366" x2="366" y1="0" y2="21" stroke="rgb(173,169,165)" />
      <line fill="none" x1="464" x2="464" y1="0" y2="21" stroke="rgb(173,169,165)" />
      <rect x="0" y="0" fill="none" width="800" height="21" stroke="rgb(173,169,165)" />
      <text xml:space="preserve" x="0" y="37" stroke="none">Occupancy Per SM</text>
      <rect x="0" y="79" fill="rgb(242,241,240)" width="800" height="35" stroke="none" />
      <rect x="0" y="145" fill="rgb(242,241,240)" width="800" height="35" stroke="none" />
      <text xml:space="preserve" x="2" y="69" stroke="none">Active Blocks</text>
      <text xml:space="preserve" x="311" y="69" stroke="none">8</text>
      <text xml:space="preserve" x="405" y="69" stroke="none">32</text>
      <rect x="482" y="53" fill="none" width="294" height="8" stroke-width="2" />
      <rect x="483" y="54" width="73" height="6" stroke="none" stroke-width="2" />
      <text x="768" y="79" fill="gray" stroke="none" stroke-width="2" xml:space="preserve">32</text>
      <rect x="775" y="62" fill="none" width="1" height="2" stroke="gray" stroke-width="2" />
      <text x="479" y="79" fill="gray" stroke="none" stroke-width="2" xml:space="preserve">0</text>
      <rect x="482" y="62" fill="none" width="1" height="2" stroke="gray" stroke-width="2" />
      <text x="515" y="79" fill="gray" stroke="none" stroke-width="2" xml:space="preserve">4</text>
      <rect x="518" y="62" fill="none" width="1" height="2" stroke="gray" stroke-width="2" />
      <text x="552" y="79" fill="gray" stroke="none" stroke-width="2" xml:space="preserve">8</text>
      <rect x="555" y="62" fill="none" width="1" height="2" stroke="gray" stroke-width="2" />
      <text x="584" y="79" fill="gray" stroke="none" stroke-width="2" xml:space="preserve">12</text>
      <rect x="591" y="62" fill="none" width="1" height="2" stroke="gray" stroke-width="2" />
      <text x="621" y="79" fill="gray" stroke="none" stroke-width="2" xml:space="preserve">16</text>
      <rect x="628" y="62" fill="none" width="1" height="2" stroke="gray" stroke-width="2" />
      <text x="658" y="79" fill="gray" stroke="none" stroke-width="2" xml:space="preserve">20</text>
      <rect x="665" y="62" fill="none" width="1" height="2" stroke="gray" stroke-width="2" />
      <text x="694" y="79" fill="gray" stroke="none" stroke-width="2" xml:space="preserve">24</text>
      <rect x="701" y="62" fill="none" width="1" height="2" stroke="gray" stroke-width="2" />
      <text x="731" y="79" fill="gray" stroke="none" stroke-width="2" xml:space="preserve">28</text>
      <rect x="738" y="62" fill="none" width="1" height="2" stroke="gray" stroke-width="2" />
      <text xml:space="preserve" x="2" stroke-width="2" y="102" stroke="none">Active Warps</text>
      <text xml:space="preserve" x="209" stroke-width="2" y="102" stroke="none">52</text>
      <text xml:space="preserve" x="307" stroke-width="2" y="102" stroke="none">64</text>
      <text xml:space="preserve" x="405" stroke-width="2" y="102" stroke="none">64</text>
      <rect x="482" y="86" fill="none" width="294" height="8" stroke-width="2" />
      <rect x="483" y="87" width="293" height="6" stroke="none" stroke-width="2" />
      <text x="768" y="112" fill="gray" stroke="none" stroke-width="2" xml:space="preserve">64</text>
      <rect x="775" y="95" fill="none" width="1" height="2" stroke="gray" stroke-width="2" />
      <text x="479" y="112" fill="gray" stroke="none" stroke-width="2" xml:space="preserve">0</text>
      <rect x="482" y="95" fill="none" width="1" height="2" stroke="gray" stroke-width="2" />
      <text x="520" y="112" fill="gray" stroke="none" stroke-width="2" xml:space="preserve">9</text>
      <rect x="523" y="95" fill="none" width="1" height="2" stroke="gray" stroke-width="2" />
      <text x="557" y="112" fill="gray" stroke="none" stroke-width="2" xml:space="preserve">18</text>
      <rect x="564" y="95" fill="none" width="1" height="2" stroke="gray" stroke-width="2" />
      <text x="598" y="112" fill="gray" stroke="none" stroke-width="2" xml:space="preserve">27</text>
      <rect x="605" y="95" fill="none" width="1" height="2" stroke="gray" stroke-width="2" />
      <text x="639" y="112" fill="gray" stroke="none" stroke-width="2" xml:space="preserve">36</text>
      <rect x="646" y="95" fill="none" width="1" height="2" stroke="gray" stroke-width="2" />
      <text x="681" y="112" fill="gray" stroke="none" stroke-width="2" xml:space="preserve">45</text>
      <rect x="688" y="95" fill="none" width="1" height="2" stroke="gray" stroke-width="2" />
      <text x="722" y="112" fill="gray" stroke="none" stroke-width="2" xml:space="preserve">54</text>
      <rect x="729" y="95" fill="none" width="1" height="2" stroke="gray" stroke-width="2" />
      <text x="763" y="112" fill="gray" stroke="none" stroke-width="2" xml:space="preserve">63</text>
      <rect x="770" y="95" fill="none" width="1" height="2" stroke="gray" stroke-width="2" />
      <rect x="721" y="83" fill="rgb(240,119,70)" width="3" rx="1.5" ry="1.5" height="14" stroke="none" stroke-width="2" />
      <text xml:space="preserve" x="2" stroke-width="2" y="135" stroke="none">Active Threads</text>
      <text xml:space="preserve" x="299" stroke-width="2" y="135" stroke="none">2048</text>
      <text xml:space="preserve" x="397" stroke-width="2" y="135" stroke="none">2048</text>
      <rect x="482" y="119" fill="none" width="294" height="8" stroke-width="2" />
      <rect x="483" y="120" width="293" height="6" stroke="none" stroke-width="2" />
      <text x="761" y="145" fill="gray" stroke="none" stroke-width="2" xml:space="preserve">2048</text>
      <rect x="775" y="128" fill="none" width="1" height="2" stroke="gray" stroke-width="2" />
      <text x="479" y="145" fill="gray" stroke="none" stroke-width="2" xml:space="preserve">0</text>
      <rect x="482" y="128" fill="none" width="1" height="2" stroke="gray" stroke-width="2" />
      <text x="545" y="145" fill="gray" stroke="none" stroke-width="2" xml:space="preserve">512</text>
      <rect x="555" y="128" fill="none" width="1" height="2" stroke="gray" stroke-width="2" />
      <text x="614" y="145" fill="gray" stroke="none" stroke-width="2" xml:space="preserve">1024</text>
      <rect x="628" y="128" fill="none" width="1" height="2" stroke="gray" stroke-width="2" />
      <text x="687" y="145" fill="gray" stroke="none" stroke-width="2" xml:space="preserve">1536</text>
      <rect x="701" y="128" fill="none" width="1" height="2" stroke="gray" stroke-width="2" />
      <text xml:space="preserve" x="2" stroke-width="2" y="168" stroke="none">Occupancy</text>
      <text xml:space="preserve" x="203" stroke-width="2" y="168" stroke="none">81.2%</text>
      <text xml:space="preserve" x="303" stroke-width="2" y="168" stroke="none">100%</text>
      <text xml:space="preserve" x="401" stroke-width="2" y="168" stroke="none">100%</text>
      <rect x="482" y="152" fill="none" width="294" height="8" stroke-width="2" />
      <rect x="483" y="153" width="293" height="6" stroke="none" stroke-width="2" />
      <text x="765" y="178" fill="gray" stroke="none" stroke-width="2" xml:space="preserve">100%</text>
      <rect x="775" y="161" fill="none" width="1" height="2" stroke="gray" stroke-width="2" />
      <text x="479" y="178" fill="gray" stroke="none" stroke-width="2" xml:space="preserve">0%</text>
      <rect x="482" y="161" fill="none" width="1" height="2" stroke="gray" stroke-width="2" />
      <text x="548" y="178" fill="gray" stroke="none" stroke-width="2" xml:space="preserve">25%</text>
      <rect x="555" y="161" fill="none" width="1" height="2" stroke="gray" stroke-width="2" />
      <text x="621" y="178" fill="gray" stroke="none" stroke-width="2" xml:space="preserve">50%</text>
      <rect x="628" y="161" fill="none" width="1" height="2" stroke="gray" stroke-width="2" />
      <text x="694" y="178" fill="gray" stroke="none" stroke-width="2" xml:space="preserve">75%</text>
      <rect x="701" y="161" fill="none" width="1" height="2" stroke="gray" stroke-width="2" />
      <rect x="721" y="149" fill="rgb(240,119,70)" width="3" rx="1.5" ry="1.5" height="14" stroke="none" stroke-width="2" />
      <line fill="none" x1="170" x2="170" y1="44" y2="180" stroke="rgb(173,169,165)" />
      <line fill="none" x1="268" x2="268" y1="44" y2="180" stroke="rgb(173,169,165)" />
      <line fill="none" x1="366" x2="366" y1="44" y2="180" stroke="rgb(173,169,165)" />
      <line fill="none" x1="464" x2="464" y1="44" y2="180" stroke="rgb(173,169,165)" />
      <rect x="0" y="44" fill="none" width="800" height="136" stroke="rgb(173,169,165)" />
      <text xml:space="preserve" x="0" y="196" stroke="none">Warps</text>
      <rect x="0" y="238" fill="rgb(242,241,240)" width="800" height="35" stroke="none" />
      <text xml:space="preserve" x="2" y="228" stroke="none">Threads/Block</text>
      <text xml:space="preserve" x="303" y="228" stroke="none">256</text>
      <text xml:space="preserve" x="397" y="228" stroke="none">1024</text>
      <rect x="482" y="212" fill="none" width="294" height="8" stroke-width="2" />
      <rect x="483" y="213" width="73" height="6" stroke="none" stroke-width="2" />
      <text x="761" y="238" fill="gray" stroke="none" stroke-width="2" xml:space="preserve">1024</text>
      <rect x="775" y="221" fill="none" width="1" height="2" stroke="gray" stroke-width="2" />
      <text x="479" y="238" fill="gray" stroke="none" stroke-width="2" xml:space="preserve">0</text>
      <rect x="482" y="221" fill="none" width="1" height="2" stroke="gray" stroke-width="2" />
      <text x="545" y="238" fill="gray" stroke="none" stroke-width="2" xml:space="preserve">256</text>
      <rect x="555" y="221" fill="none" width="1" height="2" stroke="gray" stroke-width="2" />
      <text x="618" y="238" fill="gray" stroke="none" stroke-width="2" xml:space="preserve">512</text>
      <rect x="628" y="221" fill="none" width="1" height="2" stroke="gray" stroke-width="2" />
      <text x="691" y="238" fill="gray" stroke="none" stroke-width="2" xml:space="preserve">768</text>
      <rect x="701" y="221" fill="none" width="1" height="2" stroke="gray" stroke-width="2" />
      <text xml:space="preserve" x="2" stroke-width="2" y="261" stroke="none">Warps/Block</text>
      <text xml:space="preserve" x="311" stroke-width="2" y="261" stroke="none">8</text>
      <text xml:space="preserve" x="405" stroke-width="2" y="261" stroke="none">32</text>
      <rect x="482" y="245" fill="none" width="294" height="8" stroke-width="2" />
      <rect x="483" y="246" width="73" height="6" stroke="none" stroke-width="2" />
      <text x="768" y="271" fill="gray" stroke="none" stroke-width="2" xml:space="preserve">32</text>
      <rect x="775" y="254" fill="none" width="1" height="2" stroke="gray" stroke-width="2" />
      <text x="479" y="271" fill="gray" stroke="none" stroke-width="2" xml:space="preserve">0</text>
      <rect x="482" y="254" fill="none" width="1" height="2" stroke="gray" stroke-width="2" />
      <text x="515" y="271" fill="gray" stroke="none" stroke-width="2" xml:space="preserve">4</text>
      <rect x="518" y="254" fill="none" width="1" height="2" stroke="gray" stroke-width="2" />
      <text x="552" y="271" fill="gray" stroke="none" stroke-width="2" xml:space="preserve">8</text>
      <rect x="555" y="254" fill="none" width="1" height="2" stroke="gray" stroke-width="2" />
      <text x="584" y="271" fill="gray" stroke="none" stroke-width="2" xml:space="preserve">12</text>
      <rect x="591" y="254" fill="none" width="1" height="2" stroke="gray" stroke-width="2" />
      <text x="621" y="271" fill="gray" stroke="none" stroke-width="2" xml:space="preserve">16</text>
      <rect x="628" y="254" fill="none" width="1" height="2" stroke="gray" stroke-width="2" />
      <text x="658" y="271" fill="gray" stroke="none" stroke-width="2" xml:space="preserve">20</text>
      <rect x="665" y="254" fill="none" width="1" height="2" stroke="gray" stroke-width="2" />
      <text x="694" y="271" fill="gray" stroke="none" stroke-width="2" xml:space="preserve">24</text>
      <rect x="701" y="254" fill="none" width="1" height="2" stroke="gray" stroke-width="2" />
      <text x="731" y="271" fill="gray" stroke="none" stroke-width="2" xml:space="preserve">28</text>
      <rect x="738" y="254" fill="none" width="1" height="2" stroke="gray" stroke-width="2" />
      <text xml:space="preserve" x="2" stroke-width="2" y="294" stroke="none">Block Limit</text>
      <text xml:space="preserve" x="311" stroke-width="2" y="294" stroke="none">8</text>
      <text xml:space="preserve" x="405" stroke-width="2" y="294" stroke="none">32</text>
      <rect x="482" y="278" fill="none" width="294" height="8" stroke-width="2" />
      <rect x="483" y="279" width="73" height="6" stroke="none" stroke-width="2" />
      <text x="768" y="304" fill="gray" stroke="none" stroke-width="2" xml:space="preserve">32</text>
      <rect x="775" y="287" fill="none" width="1" height="2" stroke="gray" stroke-width="2" />
      <text x="479" y="304" fill="gray" stroke="none" stroke-width="2" xml:space="preserve">0</text>
      <rect x="482" y="287" fill="none" width="1" height="2" stroke="gray" stroke-width="2" />
      <text x="515" y="304" fill="gray" stroke="none" stroke-width="2" xml:space="preserve">4</text>
      <rect x="518" y="287" fill="none" width="1" height="2" stroke="gray" stroke-width="2" />
      <text x="552" y="304" fill="gray" stroke="none" stroke-width="2" xml:space="preserve">8</text>
      <rect x="555" y="287" fill="none" width="1" height="2" stroke="gray" stroke-width="2" />
      <text x="584" y="304" fill="gray" stroke="none" stroke-width="2" xml:space="preserve">12</text>
      <rect x="591" y="287" fill="none" width="1" height="2" stroke="gray" stroke-width="2" />
      <text x="621" y="304" fill="gray" stroke="none" stroke-width="2" xml:space="preserve">16</text>
      <rect x="628" y="287" fill="none" width="1" height="2" stroke="gray" stroke-width="2" />
      <text x="658" y="304" fill="gray" stroke="none" stroke-width="2" xml:space="preserve">20</text>
      <rect x="665" y="287" fill="none" width="1" height="2" stroke="gray" stroke-width="2" />
      <text x="694" y="304" fill="gray" stroke="none" stroke-width="2" xml:space="preserve">24</text>
      <rect x="701" y="287" fill="none" width="1" height="2" stroke="gray" stroke-width="2" />
      <text x="731" y="304" fill="gray" stroke="none" stroke-width="2" xml:space="preserve">28</text>
      <rect x="738" y="287" fill="none" width="1" height="2" stroke="gray" stroke-width="2" />
      <line fill="none" x1="170" x2="170" y1="203" y2="306" stroke="rgb(173,169,165)" />
      <line fill="none" x1="268" x2="268" y1="203" y2="306" stroke="rgb(173,169,165)" />
      <line fill="none" x1="366" x2="366" y1="203" y2="306" stroke="rgb(173,169,165)" />
      <line fill="none" x1="464" x2="464" y1="203" y2="306" stroke="rgb(173,169,165)" />
      <rect x="0" y="203" fill="none" width="800" height="103" stroke="rgb(173,169,165)" />
      <text xml:space="preserve" x="0" y="322" stroke="none">Registers</text>
      <rect x="0" y="364" fill="rgb(242,241,240)" width="800" height="35" stroke="none" />
      <text xml:space="preserve" x="2" y="354" stroke="none">Registers/Thread</text>
      <text xml:space="preserve" x="307" y="354" stroke="none">32</text>
      <text xml:space="preserve" x="393" y="354" stroke="none">65536</text>
      <rect x="482" y="338" fill="none" width="294" height="8" stroke-width="2" />
      <line x1="483" x2="483" y1="339" y2="345" stroke="none" stroke-width="2" />
      <text x="757" y="364" fill="gray" stroke="none" stroke-width="2" xml:space="preserve">65536</text>
      <rect x="775" y="347" fill="none" width="1" height="2" stroke="gray" stroke-width="2" />
      <text x="479" y="364" fill="gray" stroke="none" stroke-width="2" xml:space="preserve">0</text>
      <rect x="482" y="347" fill="none" width="1" height="2" stroke="gray" stroke-width="2" />
      <text x="537" y="364" fill="gray" stroke="none" stroke-width="2" xml:space="preserve">16384</text>
      <rect x="555" y="347" fill="none" width="1" height="2" stroke="gray" stroke-width="2" />
      <text x="610" y="364" fill="gray" stroke="none" stroke-width="2" xml:space="preserve">32768</text>
      <rect x="628" y="347" fill="none" width="1" height="2" stroke="gray" stroke-width="2" />
      <text x="683" y="364" fill="gray" stroke="none" stroke-width="2" xml:space="preserve">49152</text>
      <rect x="701" y="347" fill="none" width="1" height="2" stroke="gray" stroke-width="2" />
      <text xml:space="preserve" x="2" stroke-width="2" y="387" stroke="none">Registers/Block</text>
      <text xml:space="preserve" x="299" stroke-width="2" y="387" stroke="none">8192</text>
      <text xml:space="preserve" x="393" stroke-width="2" y="387" stroke="none">65536</text>
      <rect x="482" y="371" fill="none" width="294" height="8" stroke-width="2" />
      <rect x="483" y="372" fill="silver" width="293" height="6" stroke="none" stroke-width="2" />
      <rect x="483" y="372" width="37" height="6" stroke="none" stroke-width="2" />
      <text x="768" y="397" fill="gray" stroke="none" stroke-width="2" xml:space="preserve">64k</text>
      <rect x="775" y="380" fill="none" width="1" height="2" stroke="gray" stroke-width="2" />
      <text x="479" y="397" fill="gray" stroke="none" stroke-width="2" xml:space="preserve">0</text>
      <rect x="482" y="380" fill="none" width="1" height="2" stroke="gray" stroke-width="2" />
      <text x="548" y="397" fill="gray" stroke="none" stroke-width="2" xml:space="preserve">16k</text>
      <rect x="555" y="380" fill="none" width="1" height="2" stroke="gray" stroke-width="2" />
      <text x="621" y="397" fill="gray" stroke="none" stroke-width="2" xml:space="preserve">32k</text>
      <rect x="628" y="380" fill="none" width="1" height="2" stroke="gray" stroke-width="2" />
      <text x="694" y="397" fill="gray" stroke="none" stroke-width="2" xml:space="preserve">48k</text>
      <rect x="701" y="380" fill="none" width="1" height="2" stroke="gray" stroke-width="2" />
      <text xml:space="preserve" x="2" stroke-width="2" y="420" stroke="none">Block Limit</text>
      <text xml:space="preserve" x="311" stroke-width="2" y="420" stroke="none">8</text>
      <text xml:space="preserve" x="405" stroke-width="2" y="420" stroke="none">32</text>
      <rect x="482" y="404" fill="none" width="294" height="8" stroke-width="2" />
      <rect x="483" y="405" width="73" height="6" stroke="none" stroke-width="2" />
      <text x="768" y="430" fill="gray" stroke="none" stroke-width="2" xml:space="preserve">32</text>
      <rect x="775" y="413" fill="none" width="1" height="2" stroke="gray" stroke-width="2" />
      <text x="479" y="430" fill="gray" stroke="none" stroke-width="2" xml:space="preserve">0</text>
      <rect x="482" y="413" fill="none" width="1" height="2" stroke="gray" stroke-width="2" />
      <text x="515" y="430" fill="gray" stroke="none" stroke-width="2" xml:space="preserve">4</text>
      <rect x="518" y="413" fill="none" width="1" height="2" stroke="gray" stroke-width="2" />
      <text x="552" y="430" fill="gray" stroke="none" stroke-width="2" xml:space="preserve">8</text>
      <rect x="555" y="413" fill="none" width="1" height="2" stroke="gray" stroke-width="2" />
      <text x="584" y="430" fill="gray" stroke="none" stroke-width="2" xml:space="preserve">12</text>
      <rect x="591" y="413" fill="none" width="1" height="2" stroke="gray" stroke-width="2" />
      <text x="621" y="430" fill="gray" stroke="none" stroke-width="2" xml:space="preserve">16</text>
      <rect x="628" y="413" fill="none" width="1" height="2" stroke="gray" stroke-width="2" />
      <text x="658" y="430" fill="gray" stroke="none" stroke-width="2" xml:space="preserve">20</text>
      <rect x="665" y="413" fill="none" width="1" height="2" stroke="gray" stroke-width="2" />
      <text x="694" y="430" fill="gray" stroke="none" stroke-width="2" xml:space="preserve">24</text>
      <rect x="701" y="413" fill="none" width="1" height="2" stroke="gray" stroke-width="2" />
      <text x="731" y="430" fill="gray" stroke="none" stroke-width="2" xml:space="preserve">28</text>
      <rect x="738" y="413" fill="none" width="1" height="2" stroke="gray" stroke-width="2" />
      <line fill="none" x1="170" x2="170" y1="329" y2="432" stroke="rgb(173,169,165)" />
      <line fill="none" x1="268" x2="268" y1="329" y2="432" stroke="rgb(173,169,165)" />
      <line fill="none" x1="366" x2="366" y1="329" y2="432" stroke="rgb(173,169,165)" />
      <line fill="none" x1="464" x2="464" y1="329" y2="432" stroke="rgb(173,169,165)" />
      <rect x="0" y="329" fill="none" width="800" height="103" stroke="rgb(173,169,165)" />
      <text xml:space="preserve" x="0" y="448" stroke="none">Shared Memory</text>
      <rect x="0" y="490" fill="rgb(242,241,240)" width="800" height="35" stroke="none" />
      <text xml:space="preserve" x="2" y="480" stroke="none">Shared Memory/Block</text>
      <text xml:space="preserve" x="311" y="480" stroke="none">0</text>
      <text xml:space="preserve" x="393" y="480" stroke="none">98304</text>
      <rect x="482" y="464" fill="none" width="294" height="8" stroke-width="2" />
      <text x="768" y="490" fill="gray" stroke="none" stroke-width="2" xml:space="preserve">96k</text>
      <rect x="775" y="473" fill="none" width="1" height="2" stroke="gray" stroke-width="2" />
      <text x="479" y="490" fill="gray" stroke="none" stroke-width="2" xml:space="preserve">0</text>
      <rect x="482" y="473" fill="none" width="1" height="2" stroke="gray" stroke-width="2" />
      <text x="572" y="490" fill="gray" stroke="none" stroke-width="2" xml:space="preserve">32k</text>
      <rect x="579" y="473" fill="none" width="1" height="2" stroke="gray" stroke-width="2" />
      <text x="670" y="490" fill="gray" stroke="none" stroke-width="2" xml:space="preserve">64k</text>
      <rect x="677" y="473" fill="none" width="1" height="2" stroke="gray" stroke-width="2" />
      <text xml:space="preserve" x="2" stroke-width="2" y="513" stroke="none">Block Limit</text>
      <text xml:space="preserve" x="311" stroke-width="2" y="513" stroke="none">0</text>
      <text xml:space="preserve" x="405" stroke-width="2" y="513" stroke="none">32</text>
      <rect x="482" y="497" fill="none" width="294" height="8" stroke-width="2" />
      <text x="768" y="523" fill="gray" stroke="none" stroke-width="2" xml:space="preserve">32</text>
      <rect x="775" y="506" fill="none" width="1" height="2" stroke="gray" stroke-width="2" />
      <text x="479" y="523" fill="gray" stroke="none" stroke-width="2" xml:space="preserve">0</text>
      <rect x="482" y="506" fill="none" width="1" height="2" stroke="gray" stroke-width="2" />
      <text x="515" y="523" fill="gray" stroke="none" stroke-width="2" xml:space="preserve">4</text>
      <rect x="518" y="506" fill="none" width="1" height="2" stroke="gray" stroke-width="2" />
      <text x="552" y="523" fill="gray" stroke="none" stroke-width="2" xml:space="preserve">8</text>
      <rect x="555" y="506" fill="none" width="1" height="2" stroke="gray" stroke-width="2" />
      <text x="584" y="523" fill="gray" stroke="none" stroke-width="2" xml:space="preserve">12</text>
      <rect x="591" y="506" fill="none" width="1" height="2" stroke="gray" stroke-width="2" />
      <text x="621" y="523" fill="gray" stroke="none" stroke-width="2" xml:space="preserve">16</text>
      <rect x="628" y="506" fill="none" width="1" height="2" stroke="gray" stroke-width="2" />
      <text x="658" y="523" fill="gray" stroke="none" stroke-width="2" xml:space="preserve">20</text>
      <rect x="665" y="506" fill="none" width="1" height="2" stroke="gray" stroke-width="2" />
      <text x="694" y="523" fill="gray" stroke="none" stroke-width="2" xml:space="preserve">24</text>
      <rect x="701" y="506" fill="none" width="1" height="2" stroke="gray" stroke-width="2" />
      <text x="731" y="523" fill="gray" stroke="none" stroke-width="2" xml:space="preserve">28</text>
      <rect x="738" y="506" fill="none" width="1" height="2" stroke="gray" stroke-width="2" />
      <line fill="none" x1="170" x2="170" y1="455" y2="525" stroke="rgb(173,169,165)" />
      <line fill="none" x1="268" x2="268" y1="455" y2="525" stroke="rgb(173,169,165)" />
      <line fill="none" x1="366" x2="366" y1="455" y2="525" stroke="rgb(173,169,165)" />
      <line fill="none" x1="464" x2="464" y1="455" y2="525" stroke="rgb(173,169,165)" />
      <rect x="0" y="455" fill="none" width="800" height="70" stroke="rgb(173,169,165)" />
    </g>
  </g>
</svg>
