<?xml version="1.0" encoding="UTF-8"?>

<!DOCTYPE svg PUBLIC '-//W3C//DTD SVG 1.0//EN' 'http://www.w3.org/TR/2001/REC-SVG-20010904/DTD/svg10.dtd'>
<svg stroke-dasharray="none" shape-rendering="auto" xmlns="http://www.w3.org/2000/svg" font-family="&apos;Dialog&apos;" text-rendering="auto" width="100%" fill-opacity="1" color-interpolation="auto" color-rendering="auto" font-size="12" viewBox="0 0 800 600" fill="black" xmlns:xlink="http://www.w3.org/1999/xlink" stroke="black" image-rendering="auto" stroke-miterlimit="10" stroke-linecap="square" stroke-linejoin="miter" font-style="normal" stroke-width="1" height="100%" stroke-dashoffset="0" font-weight="normal" stroke-opacity="1">
  <!--Generated by the Batik Graphics2D SVG Generator-->
  <defs id="genericDefs" />
  <g>
    <g>
      <text xml:space="preserve" x="2" y="18" stroke="none">Transactions</text>
      <text xml:space="preserve" x="234" y="18" stroke="none">Bandwidth</text>
      <text xml:space="preserve" x="347" y="18" stroke="none">Utilization</text>
      <line fill="none" x1="212" x2="212" y1="0" y2="23" stroke="rgb(173,169,165)" />
      <line fill="none" x1="324" x2="324" y1="0" y2="23" stroke="rgb(173,169,165)" />
      <line fill="none" x1="436" x2="436" y1="0" y2="23" stroke="rgb(173,169,165)" />
      <rect x="0" y="0" fill="none" width="800" height="23" stroke="rgb(173,169,165)" />
      <text xml:space="preserve" x="0" y="39" stroke="none">Shared Memory</text>
      <rect x="0" y="67" fill="rgb(242,241,240)" width="800" height="21" stroke="none" />
      <text xml:space="preserve" x="2" y="64" stroke="none">Shared Loads</text>
      <text xml:space="preserve" x="262" y="64" stroke="none">0</text>
      <text xml:space="preserve" x="363" y="64" stroke="none">0 B/s</text>
      <text xml:space="preserve" x="2" y="83" stroke="none">Shared Stores</text>
      <text xml:space="preserve" x="262" y="83" stroke="none">0</text>
      <text xml:space="preserve" x="363" y="83" stroke="none">0 B/s</text>
      <text xml:space="preserve" x="2" y="109" stroke="none">Shared Total</text>
      <text xml:space="preserve" x="262" y="109" stroke="none">0</text>
      <text xml:space="preserve" x="363" y="109" stroke="none">0 B/s</text>
      <rect x="454" y="93" fill="none" width="322" height="8" stroke-width="2" />
      <line fill="silver" x1="455" x2="455" y1="94" y2="100" stroke="none" stroke-width="2" />
      <text x="444" y="119" fill="gray" stroke="none" stroke-width="2" xml:space="preserve">Idle</text>
      <rect x="454" y="102" fill="none" width="1" height="2" stroke="gray" stroke-width="2" />
      <rect x="486" y="102" fill="none" width="1" height="2" stroke="gray" stroke-width="2" />
      <text x="507" y="119" fill="gray" stroke="none" stroke-width="2" xml:space="preserve">Low</text>
      <rect x="518" y="102" fill="none" width="1" height="2" stroke="gray" stroke-width="2" />
      <rect x="550" y="102" fill="none" width="1" height="2" stroke="gray" stroke-width="2" />
      <rect x="582" y="102" fill="none" width="1" height="2" stroke="gray" stroke-width="2" />
      <text x="591" y="119" fill="gray" stroke="none" stroke-width="2" xml:space="preserve">Medium</text>
      <rect x="614" y="102" fill="none" width="1" height="2" stroke="gray" stroke-width="2" />
      <rect x="646" y="102" fill="none" width="1" height="2" stroke="gray" stroke-width="2" />
      <rect x="678" y="102" fill="none" width="1" height="2" stroke="gray" stroke-width="2" />
      <text x="697" y="119" fill="gray" stroke="none" stroke-width="2" xml:space="preserve">High</text>
      <rect x="710" y="102" fill="none" width="1" height="2" stroke="gray" stroke-width="2" />
      <rect x="742" y="102" fill="none" width="1" height="2" stroke="gray" stroke-width="2" />
      <text x="764" y="119" fill="gray" stroke="none" stroke-width="2" xml:space="preserve">Max</text>
      <rect x="775" y="102" fill="none" width="1" height="2" stroke="gray" stroke-width="2" />
      <line fill="none" x1="212" x2="212" y1="46" y2="121" stroke="rgb(173,169,165)" />
      <line fill="none" x1="324" x2="324" y1="46" y2="121" stroke="rgb(173,169,165)" />
      <line fill="none" x1="436" x2="436" y1="46" y2="121" stroke="rgb(173,169,165)" />
      <rect x="0" y="46" fill="none" width="800" height="75" stroke="rgb(173,169,165)" />
      <text xml:space="preserve" x="0" y="137" stroke="none">L2 Cache</text>
      <rect x="0" y="165" fill="rgb(242,241,240)" width="800" height="21" stroke="none" />
      <text xml:space="preserve" x="2" y="162" stroke="none">Reads</text>
      <text xml:space="preserve" x="231" y="162" stroke="none">151399893</text>
      <text xml:space="preserve" x="337" y="162" stroke="none">157.859 GB/s</text>
      <text xml:space="preserve" x="2" y="181" stroke="none">Writes</text>
      <text xml:space="preserve" x="235" y="181" stroke="none">95040504</text>
      <text xml:space="preserve" x="341" y="181" stroke="none">99.095 GB/s</text>
      <text xml:space="preserve" x="2" y="207" stroke="none">Total</text>
      <text xml:space="preserve" x="231" y="207" stroke="none">246440397</text>
      <text xml:space="preserve" x="337" y="207" stroke="none">256.953 GB/s</text>
      <rect x="454" y="191" fill="none" width="322" height="8" stroke-width="2" />
      <rect x="455" y="192" fill="silver" width="32" height="6" stroke="none" stroke-width="2" />
      <text x="444" y="217" fill="gray" stroke="none" stroke-width="2" xml:space="preserve">Idle</text>
      <rect x="454" y="200" fill="none" width="1" height="2" stroke="gray" stroke-width="2" />
      <rect x="486" y="200" fill="none" width="1" height="2" stroke="gray" stroke-width="2" />
      <text x="507" y="217" fill="gray" stroke="none" stroke-width="2" xml:space="preserve">Low</text>
      <rect x="518" y="200" fill="none" width="1" height="2" stroke="gray" stroke-width="2" />
      <rect x="550" y="200" fill="none" width="1" height="2" stroke="gray" stroke-width="2" />
      <rect x="582" y="200" fill="none" width="1" height="2" stroke="gray" stroke-width="2" />
      <text x="591" y="217" fill="gray" stroke="none" stroke-width="2" xml:space="preserve">Medium</text>
      <rect x="614" y="200" fill="none" width="1" height="2" stroke="gray" stroke-width="2" />
      <rect x="646" y="200" fill="none" width="1" height="2" stroke="gray" stroke-width="2" />
      <rect x="678" y="200" fill="none" width="1" height="2" stroke="gray" stroke-width="2" />
      <text x="697" y="217" fill="gray" stroke="none" stroke-width="2" xml:space="preserve">High</text>
      <rect x="710" y="200" fill="none" width="1" height="2" stroke="gray" stroke-width="2" />
      <rect x="742" y="200" fill="none" width="1" height="2" stroke="gray" stroke-width="2" />
      <text x="764" y="217" fill="gray" stroke="none" stroke-width="2" xml:space="preserve">Max</text>
      <rect x="775" y="200" fill="none" width="1" height="2" stroke="gray" stroke-width="2" />
      <line fill="none" x1="212" x2="212" y1="144" y2="219" stroke="rgb(173,169,165)" />
      <line fill="none" x1="324" x2="324" y1="144" y2="219" stroke="rgb(173,169,165)" />
      <line fill="none" x1="436" x2="436" y1="144" y2="219" stroke="rgb(173,169,165)" />
      <rect x="0" y="144" fill="none" width="800" height="75" stroke="rgb(173,169,165)" />
      <text xml:space="preserve" x="0" y="235" stroke="none">Unified Cache</text>
      <rect x="0" y="263" fill="rgb(242,241,240)" width="800" height="21" stroke="none" />
      <rect x="0" y="301" fill="rgb(242,241,240)" width="800" height="21" stroke="none" />
      <rect x="0" y="339" fill="rgb(242,241,240)" width="800" height="35" stroke="none" />
      <text xml:space="preserve" x="2" y="260" stroke="none">Local Loads</text>
      <text xml:space="preserve" x="262" y="260" stroke="none">0</text>
      <text xml:space="preserve" x="363" y="260" stroke="none">0 B/s</text>
      <text xml:space="preserve" x="2" y="279" stroke="none">Local Stores</text>
      <text xml:space="preserve" x="262" y="279" stroke="none">0</text>
      <text xml:space="preserve" x="363" y="279" stroke="none">0 B/s</text>
      <text xml:space="preserve" x="2" y="298" stroke="none">Global Loads</text>
      <text xml:space="preserve" x="227" y="298" stroke="none">2969932740</text>
      <text xml:space="preserve" x="331" y="298" stroke="none">3,096.628 GB/s</text>
      <text xml:space="preserve" x="2" y="317" stroke="none">Global Stores</text>
      <text xml:space="preserve" x="235" y="317" stroke="none">95040000</text>
      <text xml:space="preserve" x="341" y="317" stroke="none">99.094 GB/s</text>
      <text xml:space="preserve" x="2" y="336" stroke="none">Texture Reads</text>
      <text xml:space="preserve" x="227" y="336" stroke="none">1284216864</text>
      <text xml:space="preserve" x="331" y="336" stroke="none">5,356.003 GB/s</text>
      <text xml:space="preserve" x="2" y="362" stroke="none">Unified Total</text>
      <text xml:space="preserve" x="227" y="362" stroke="none">4349189604</text>
      <text xml:space="preserve" x="331" y="362" stroke="none">8,551.725 GB/s</text>
      <rect x="454" y="346" fill="none" width="322" height="8" stroke-width="2" />
      <rect x="455" y="347" fill="silver" width="160" height="6" stroke="none" stroke-width="2" />
      <text x="444" y="372" fill="gray" stroke="none" stroke-width="2" xml:space="preserve">Idle</text>
      <rect x="454" y="355" fill="none" width="1" height="2" stroke="gray" stroke-width="2" />
      <rect x="486" y="355" fill="none" width="1" height="2" stroke="gray" stroke-width="2" />
      <text x="507" y="372" fill="gray" stroke="none" stroke-width="2" xml:space="preserve">Low</text>
      <rect x="518" y="355" fill="none" width="1" height="2" stroke="gray" stroke-width="2" />
      <rect x="550" y="355" fill="none" width="1" height="2" stroke="gray" stroke-width="2" />
      <rect x="582" y="355" fill="none" width="1" height="2" stroke="gray" stroke-width="2" />
      <text x="591" y="372" fill="gray" stroke="none" stroke-width="2" xml:space="preserve">Medium</text>
      <rect x="614" y="355" fill="none" width="1" height="2" stroke="gray" stroke-width="2" />
      <rect x="646" y="355" fill="none" width="1" height="2" stroke="gray" stroke-width="2" />
      <rect x="678" y="355" fill="none" width="1" height="2" stroke="gray" stroke-width="2" />
      <text x="697" y="372" fill="gray" stroke="none" stroke-width="2" xml:space="preserve">High</text>
      <rect x="710" y="355" fill="none" width="1" height="2" stroke="gray" stroke-width="2" />
      <rect x="742" y="355" fill="none" width="1" height="2" stroke="gray" stroke-width="2" />
      <text x="764" y="372" fill="gray" stroke="none" stroke-width="2" xml:space="preserve">Max</text>
      <rect x="775" y="355" fill="none" width="1" height="2" stroke="gray" stroke-width="2" />
      <line fill="none" x1="212" x2="212" y1="242" y2="374" stroke="rgb(173,169,165)" />
      <line fill="none" x1="324" x2="324" y1="242" y2="374" stroke="rgb(173,169,165)" />
      <line fill="none" x1="436" x2="436" y1="242" y2="374" stroke="rgb(173,169,165)" />
      <rect x="0" y="242" fill="none" width="800" height="132" stroke="rgb(173,169,165)" />
      <text xml:space="preserve" x="0" y="390" stroke="none">Device Memory</text>
      <rect x="0" y="418" fill="rgb(242,241,240)" width="800" height="21" stroke="none" />
      <text xml:space="preserve" x="2" y="415" stroke="none">Reads</text>
      <text xml:space="preserve" x="231" y="415" stroke="none">201655668</text>
      <text xml:space="preserve" x="337" y="415" stroke="none">210.258 GB/s</text>
      <text xml:space="preserve" x="2" y="434" stroke="none">Writes</text>
      <text xml:space="preserve" x="235" y="434" stroke="none">95086687</text>
      <text xml:space="preserve" x="341" y="434" stroke="none">99.143 GB/s</text>
      <text xml:space="preserve" x="2" y="460" stroke="none">Total</text>
      <text xml:space="preserve" x="231" y="460" stroke="none">296742355</text>
      <text xml:space="preserve" x="337" y="460" stroke="none">309.401 GB/s</text>
      <rect x="454" y="444" fill="none" width="322" height="8" stroke-width="2" />
      <rect x="455" y="445" fill="silver" width="160" height="6" stroke="none" stroke-width="2" />
      <text x="444" y="470" fill="gray" stroke="none" stroke-width="2" xml:space="preserve">Idle</text>
      <rect x="454" y="453" fill="none" width="1" height="2" stroke="gray" stroke-width="2" />
      <rect x="486" y="453" fill="none" width="1" height="2" stroke="gray" stroke-width="2" />
      <text x="507" y="470" fill="gray" stroke="none" stroke-width="2" xml:space="preserve">Low</text>
      <rect x="518" y="453" fill="none" width="1" height="2" stroke="gray" stroke-width="2" />
      <rect x="550" y="453" fill="none" width="1" height="2" stroke="gray" stroke-width="2" />
      <rect x="582" y="453" fill="none" width="1" height="2" stroke="gray" stroke-width="2" />
      <text x="591" y="470" fill="gray" stroke="none" stroke-width="2" xml:space="preserve">Medium</text>
      <rect x="614" y="453" fill="none" width="1" height="2" stroke="gray" stroke-width="2" />
      <rect x="646" y="453" fill="none" width="1" height="2" stroke="gray" stroke-width="2" />
      <rect x="678" y="453" fill="none" width="1" height="2" stroke="gray" stroke-width="2" />
      <text x="697" y="470" fill="gray" stroke="none" stroke-width="2" xml:space="preserve">High</text>
      <rect x="710" y="453" fill="none" width="1" height="2" stroke="gray" stroke-width="2" />
      <rect x="742" y="453" fill="none" width="1" height="2" stroke="gray" stroke-width="2" />
      <text x="764" y="470" fill="gray" stroke="none" stroke-width="2" xml:space="preserve">Max</text>
      <rect x="775" y="453" fill="none" width="1" height="2" stroke="gray" stroke-width="2" />
      <line fill="none" x1="212" x2="212" y1="397" y2="472" stroke="rgb(173,169,165)" />
      <line fill="none" x1="324" x2="324" y1="397" y2="472" stroke="rgb(173,169,165)" />
      <line fill="none" x1="436" x2="436" y1="397" y2="472" stroke="rgb(173,169,165)" />
      <rect x="0" y="397" fill="none" width="800" height="75" stroke="rgb(173,169,165)" />
      <text xml:space="preserve" x="0" y="488" stroke="none">System Memory</text>
      <text xml:space="preserve" x="0" y="510" stroke="none">[ PCIe configuration: Gen3 x16, 8 Gbit/s ]</text>
      <rect x="0" y="552" fill="rgb(242,241,240)" width="800" height="35" stroke="none" />
      <text xml:space="preserve" x="2" y="542" stroke="none">Reads</text>
      <text xml:space="preserve" x="262" y="542" stroke="none">0</text>
      <text xml:space="preserve" x="363" y="542" stroke="none">0 B/s</text>
      <rect x="454" y="526" fill="none" width="322" height="8" stroke-width="2" />
      <line fill="silver" x1="455" x2="455" y1="527" y2="533" stroke="none" stroke-width="2" />
      <text x="444" y="552" fill="gray" stroke="none" stroke-width="2" xml:space="preserve">Idle</text>
      <rect x="454" y="535" fill="none" width="1" height="2" stroke="gray" stroke-width="2" />
      <rect x="486" y="535" fill="none" width="1" height="2" stroke="gray" stroke-width="2" />
      <text x="507" y="552" fill="gray" stroke="none" stroke-width="2" xml:space="preserve">Low</text>
      <rect x="518" y="535" fill="none" width="1" height="2" stroke="gray" stroke-width="2" />
      <rect x="550" y="535" fill="none" width="1" height="2" stroke="gray" stroke-width="2" />
      <rect x="582" y="535" fill="none" width="1" height="2" stroke="gray" stroke-width="2" />
      <text x="591" y="552" fill="gray" stroke="none" stroke-width="2" xml:space="preserve">Medium</text>
      <rect x="614" y="535" fill="none" width="1" height="2" stroke="gray" stroke-width="2" />
      <rect x="646" y="535" fill="none" width="1" height="2" stroke="gray" stroke-width="2" />
      <rect x="678" y="535" fill="none" width="1" height="2" stroke="gray" stroke-width="2" />
      <text x="697" y="552" fill="gray" stroke="none" stroke-width="2" xml:space="preserve">High</text>
      <rect x="710" y="535" fill="none" width="1" height="2" stroke="gray" stroke-width="2" />
      <rect x="742" y="535" fill="none" width="1" height="2" stroke="gray" stroke-width="2" />
      <text x="764" y="552" fill="gray" stroke="none" stroke-width="2" xml:space="preserve">Max</text>
      <rect x="775" y="535" fill="none" width="1" height="2" stroke="gray" stroke-width="2" />
      <text xml:space="preserve" x="2" stroke-width="2" y="575" stroke="none">Writes</text>
      <text xml:space="preserve" x="262" stroke-width="2" y="575" stroke="none">5</text>
      <text xml:space="preserve" x="346" stroke-width="2" y="575" stroke="none">5.213 kB/s</text>
      <rect x="454" y="559" fill="none" width="322" height="8" stroke-width="2" />
      <rect x="455" y="560" fill="silver" width="32" height="6" stroke="none" stroke-width="2" />
      <text x="444" y="585" fill="gray" stroke="none" stroke-width="2" xml:space="preserve">Idle</text>
      <rect x="454" y="568" fill="none" width="1" height="2" stroke="gray" stroke-width="2" />
      <rect x="486" y="568" fill="none" width="1" height="2" stroke="gray" stroke-width="2" />
      <text x="507" y="585" fill="gray" stroke="none" stroke-width="2" xml:space="preserve">Low</text>
      <rect x="518" y="568" fill="none" width="1" height="2" stroke="gray" stroke-width="2" />
      <rect x="550" y="568" fill="none" width="1" height="2" stroke="gray" stroke-width="2" />
      <rect x="582" y="568" fill="none" width="1" height="2" stroke="gray" stroke-width="2" />
      <text x="591" y="585" fill="gray" stroke="none" stroke-width="2" xml:space="preserve">Medium</text>
      <rect x="614" y="568" fill="none" width="1" height="2" stroke="gray" stroke-width="2" />
      <rect x="646" y="568" fill="none" width="1" height="2" stroke="gray" stroke-width="2" />
      <rect x="678" y="568" fill="none" width="1" height="2" stroke="gray" stroke-width="2" />
      <text x="697" y="585" fill="gray" stroke="none" stroke-width="2" xml:space="preserve">High</text>
      <rect x="710" y="568" fill="none" width="1" height="2" stroke="gray" stroke-width="2" />
      <rect x="742" y="568" fill="none" width="1" height="2" stroke="gray" stroke-width="2" />
      <text x="764" y="585" fill="gray" stroke="none" stroke-width="2" xml:space="preserve">Max</text>
      <rect x="775" y="568" fill="none" width="1" height="2" stroke="gray" stroke-width="2" />
      <line fill="none" x1="212" x2="212" y1="517" y2="587" stroke="rgb(173,169,165)" />
      <line fill="none" x1="324" x2="324" y1="517" y2="587" stroke="rgb(173,169,165)" />
      <line fill="none" x1="436" x2="436" y1="517" y2="587" stroke="rgb(173,169,165)" />
      <rect x="0" y="517" fill="none" width="800" height="70" stroke="rgb(173,169,165)" />
    </g>
  </g>
</svg>
